<svg width="20" height="20" viewBox="0 0 20 20" fill="none" xmlns="http://www.w3.org/2000/svg">
<path d="M18.75 14.0625V0.9375C18.75 0.417969 18.332 0 17.8125 0H5C2.92969 0 1.25 1.67969 1.25 3.75V16.25C1.25 18.3203 2.92969 20 5 20H17.8125C18.332 20 18.75 19.582 18.75 19.0625V18.4375C18.75 18.1445 18.6133 17.8789 18.4023 17.707C18.2383 17.1055 18.2383 15.3906 18.4023 14.7891C18.6133 14.6211 18.75 14.3555 18.75 14.0625ZM6.25 5.23438C6.25 5.10547 6.35547 5 6.48438 5H14.7656C14.8945 5 15 5.10547 15 5.23438V6.01562C15 6.14453 14.8945 6.25 14.7656 6.25H6.48438C6.35547 6.25 6.25 6.14453 6.25 6.01562V5.23438ZM6.25 7.73438C6.25 7.60547 6.35547 7.5 6.48438 7.5H14.7656C14.8945 7.5 15 7.60547 15 7.73438V8.51562C15 8.64453 14.8945 8.75 14.7656 8.75H6.48438C6.35547 8.75 6.25 8.64453 6.25 8.51562V7.73438ZM16.1484 17.5H5C4.30859 17.5 3.75 16.9414 3.75 16.25C3.75 15.5625 4.3125 15 5 15H16.1484C16.0742 15.668 16.0742 16.832 16.1484 17.5Z" fill="#959BA8"/>
</svg>
