<svg width="128" height="128" viewBox="0 0 128 128" fill="none" xmlns="http://www.w3.org/2000/svg">
<path d="M90.1799 50.5V50.65H90.4899C90.4927 50.5023 90.5232 50.3564 90.5799 50.22V49.95C90.4499 49.95 90.3199 50.16 90.1999 50.53L90.1799 50.5ZM87.2399 43.42V43.15H86.7999V43.42H87.2399ZM78.6999 59.42C78.0562 58.3181 77.2656 57.3088 76.3499 56.42C76.3499 56.1 76.8499 55.63 77.9399 55L80.9999 52.34C81.8466 51.0518 82.292 49.5415 82.2799 48V47.54C82.1599 46.16 81.1599 45.05 79.2799 44.2C78.1599 43.4467 76.1599 43.03 73.2799 42.95C70.0396 43.3738 66.8732 44.242 63.8699 45.53C62.7032 46.36 61.4914 47.1245 60.2399 47.82V48.05C60.3705 48.0249 60.4937 47.9702 60.5999 47.89C60.6313 47.8823 60.6641 47.8819 60.6957 47.889C60.7272 47.896 60.7568 47.9103 60.7819 47.9306C60.8071 47.9509 60.8272 47.9768 60.8407 48.0062C60.8543 48.0356 60.8608 48.0677 60.8599 48.1L60.9999 48H61.1099V48.1C60.3574 48.8701 59.5107 49.5421 58.5899 50.1L58.7199 50.34H58.6099L58.3299 50.24C58.3299 50.32 58.2199 50.38 57.9899 50.4V50.5L58.2599 50.84C58.1251 50.8366 57.9925 50.806 57.8699 50.75C57.4198 50.8129 57.0077 51.0367 56.7099 51.38L56.8699 50.69C57.3834 48.5479 57.7708 46.3775 58.0299 44.19L57.9999 44C57.5864 43.7259 57.2185 43.3884 56.9099 43C56.9207 42.8369 56.9207 42.6732 56.9099 42.51V42.41H56.7999C55.5665 44.2567 53.1965 47.4067 49.6899 51.86C47.0232 55.0267 45.6432 56.7867 45.5499 57.14C44.4599 58.27 43.9399 58.95 43.9899 59.14C43.6999 59.33 43.5799 59.51 43.6299 59.72C43.6135 59.7261 43.596 59.7286 43.5786 59.7273C43.5611 59.7259 43.5442 59.7208 43.5289 59.7122C43.5137 59.7037 43.5005 59.6919 43.4903 59.6777C43.4801 59.6634 43.4731 59.6472 43.4699 59.63C43.2416 60.0018 42.9391 60.3225 42.5812 60.572C42.2233 60.8215 41.8177 60.9945 41.3899 61.08L40.3899 61.3C40.3584 61.3047 40.3283 61.3159 40.3014 61.3328C40.2745 61.3497 40.2513 61.372 40.2335 61.3983C40.2156 61.4247 40.2034 61.4544 40.1976 61.4857C40.1919 61.5169 40.1926 61.5491 40.1999 61.58V61.7L40.5599 61.62V61.72L39.7399 62.04L38.2899 62.38H37.5299C37.4199 62.49 38.1399 62.38 37.8599 62.44L36.8599 62.66C36.2799 62.79 35.9699 62.74 35.8599 62.51H35.7499C35.7679 62.589 35.7679 62.671 35.7499 62.75L35.6899 62.52L34.9299 62.7C34.9765 62.4267 33.9999 61.1933 31.9999 59C31.9999 58.57 32.6699 57.95 34.1199 57.14L38.1999 53.55C39.1132 52.3767 39.6566 50.4933 39.8299 47.9L39.7699 47.29C39.6099 45.46 38.2899 43.99 35.7699 42.85C34.2999 41.85 31.6499 41.32 27.8299 41.24C23.5676 41.798 19.4001 42.9282 15.4399 44.6C13.9076 45.6941 12.3114 46.6958 10.6599 47.6V47.92C10.8314 47.8908 10.9948 47.826 11.1399 47.73C11.1798 47.7193 11.2217 47.7179 11.2623 47.7259C11.3029 47.7339 11.341 47.7512 11.3739 47.7763C11.4068 47.8014 11.4334 47.8338 11.4518 47.8708C11.4701 47.9079 11.4798 47.9486 11.4799 47.99L11.7999 47.81H11.9999V48C10.9889 48.9907 9.86832 49.863 8.65988 50.6L8.83988 50.88H8.69988L8.35988 50.76C8.35988 50.85 8.20988 50.92 7.87988 50.95V51.12L8.24988 51.53C8.0784 51.5285 7.90875 51.4946 7.74988 51.43C7.30451 51.5241 6.88463 51.7131 6.51881 51.984C6.15299 52.2549 5.8498 52.6014 5.62988 53L5.80988 53.28C6.11784 52.9443 6.4753 52.6577 6.86988 52.43V52.89C6.70028 52.9257 6.53797 52.9899 6.38988 53.08L6.76988 53.66C7.49333 52.8946 8.30966 52.2228 9.19988 51.66C9.63988 51.77 9.86988 51.91 9.87988 52.06H10.2199C12.3831 50.4075 14.7925 49.105 17.3599 48.2V48.52C16.9199 49.1867 16.6232 49.52 16.4699 49.52C16.4806 49.7364 16.5613 49.9434 16.6999 50.11C16.7399 50.51 15.6699 53.21 13.4899 58.21C8.60988 69.7367 4.48988 78.28 1.12988 83.84C1.16101 84.0034 1.22945 84.1574 1.32988 84.29C1.88852 84.1986 2.4227 83.9945 2.89988 83.69H3.07988V84.01H3.38988L3.70988 83.83C3.70988 83.92 3.81988 83.97 4.03988 83.95V84.27C3.99856 84.7817 3.81881 85.2726 3.51988 85.69C3.04249 86.3942 2.69062 87.1758 2.47988 88V88.15H2.78988C4.00779 86.8277 5.0375 85.3437 5.84988 83.74C8.95372 82.912 11.9683 81.7799 14.8499 80.36C16.5591 80.3124 18.2129 79.7436 19.5899 78.73V78.56L18.8099 78.79H18.6299V78.62C19.751 78.5433 20.8377 78.2005 21.7999 77.62C24.7732 75.3267 27.0199 73.7033 28.5399 72.75C31.6599 70.4567 33.6865 68.2233 34.6199 66.05L35.1399 65.93C35.3897 65.9438 35.6401 65.9438 35.8899 65.93C35.8899 65.85 35.8899 65.8 35.9899 65.78C36.6899 65.71 36.3499 65.78 36.7999 65.72L37.9699 65.45H38.1699L38.0799 65.51C38.2219 65.5373 38.3678 65.5373 38.5099 65.51L38.5899 65.85L33.2499 74.34L31.9999 75.71L31.4199 77.65H31.5299L32.1099 77.41L31.9199 78.16L31.9799 78.38L32.1399 78.58C32.0699 78.58 32.0399 78.65 32.0599 78.73V78.85L32.2999 78.79C32.6532 78.4833 32.8032 78.2033 32.7499 77.95C32.9978 78.0139 33.255 78.0342 33.5099 78.01V78.13C33.2799 78.19 33.1599 78.37 33.1399 78.69V78.81H33.2699C35.2099 76.69 39.9599 69.46 43.7699 64.54C43.6499 64.0067 45.6499 63.2667 49.7699 62.32H49.8999C50.0465 62.9867 49.7132 64.5433 48.8999 66.99C48.5815 67.7773 48.3436 68.5948 48.1899 69.43C47.7875 70.4736 47.4796 71.5513 47.2699 72.65L45.8999 77.34C44.9471 79.8219 44.2241 82.386 43.7399 85C43.8719 84.9731 44.0079 84.9731 44.1399 85L44.3499 84.82C44.3531 84.8372 44.3601 84.8535 44.3703 84.8677C44.3805 84.8819 44.3937 84.8937 44.4089 84.9022C44.4242 84.9108 44.4411 84.9159 44.4586 84.9173C44.476 84.9186 44.4935 84.9161 44.5099 84.91L44.4299 84.57H45.0599C45.2499 84.57 45.3999 84.29 45.5399 83.86C45.5399 83.22 45.6399 82.86 45.9299 82.8C46.0774 82.001 46.3191 81.2222 46.6499 80.48C46.8035 79.5813 47.0759 78.707 47.4599 77.88C48.0099 75.88 48.4599 74.88 48.6699 74.82L48.7299 75.06L48.3299 76.06C47.8094 78.5599 47.1007 81.0169 46.2099 83.41L46.4199 84.3H46.5499C48.2832 80.5733 50.7765 73.1933 54.0299 62.16C54.0772 61.719 54.2253 61.2948 54.4629 60.9202C54.7005 60.5456 55.0211 60.2308 55.3999 60L55.2099 59.8V59.7C55.5147 59.6529 55.7919 59.4965 55.9899 59.26C55.9899 59.18 55.6499 59.05 54.9899 58.89L56.6099 51.89C56.789 51.6972 56.9984 51.5351 57.2299 51.41V51.76C57.0992 51.7851 56.9761 51.8398 56.8699 51.92L57.1799 52.36C57.7235 51.7794 58.3345 51.2658 58.9999 50.83C59.3399 50.92 59.4999 51.04 59.5199 51.15H59.7599C61.4065 49.9019 63.2388 48.92 65.1899 48.24V48.47C64.8632 48.9633 64.6399 49.2133 64.5199 49.22C64.5331 49.3799 64.5845 49.5342 64.6699 49.67C64.0278 51.7828 63.2221 53.8424 62.2599 55.83C59.5395 62.5441 56.3862 69.0744 52.8199 75.38C52.8508 75.5045 52.9088 75.6206 52.9899 75.72C53.4115 75.6524 53.8138 75.4956 54.1699 75.26H54.2799V75.49H54.5399L54.7699 75.37C54.7699 75.4367 54.8532 75.4633 55.0199 75.45V75.7C54.9852 76.0831 54.8469 76.4495 54.6199 76.76C54.2233 77.3071 53.9348 77.9248 53.7699 78.58V78.7H54.0099C54.9348 77.6963 55.7156 76.5688 56.3299 75.35C58.674 74.7185 60.9513 73.8612 63.1299 72.79C64.4349 72.7562 65.6982 72.3234 66.7499 71.55V71.43L66.1399 71.61H66.0099V71.49C66.8597 71.4278 67.6825 71.1638 68.4099 70.72C70.6599 68.99 72.4099 67.72 73.5299 67.02C77.1299 64.4 78.7999 61.89 78.5999 59.47L78.6999 59.42ZM78.0799 59.58L78.1599 60.52C78.0499 60.75 77.9299 60.87 77.8199 60.88L77.6799 59.28C77.9399 59.37 78.0699 59.47 78.0799 59.58ZM7.51988 52H7.35988V51.71L7.99988 51.66V51.81C7.8318 51.8403 7.67179 51.905 7.52988 52H7.51988ZM4.37988 83.4C4.07036 83.2446 3.72578 83.1722 3.37988 83.19V82.73C3.37988 82.55 3.45988 82.43 3.68988 82.39C3.91988 82.35 4.01988 82.52 4.02988 82.82C4.29283 82.4581 4.59095 82.1232 4.91988 81.82L5.25988 81.96C5.14988 82.89 4.85988 83.37 4.39988 83.4H4.37988ZM37.9299 48.3C37.7699 48.3 37.4499 47.82 36.9999 46.85V46.56C37.2999 46.56 37.6099 47.02 37.9299 48.01V48.3ZM37.4799 44.82L37.3499 45.13L32.7899 43.23C35.8299 43.33 37.3932 43.86 37.4799 44.82ZM18.2499 61.35L17.6099 61.41V61.12L18.2499 61.06V61.35ZM17.7299 51.43H17.8899V51.89C17.7399 51.89 17.5499 52.12 17.2999 52.55V52.23C17.5899 51.89 17.7399 51.62 17.7199 51.44L17.7299 51.43ZM16.3799 54.62L16.4399 55.23H16.2799L16.2199 54.62H16.3799ZM15.6699 55.76H15.9799C15.9799 56.26 15.8099 56.53 15.5599 56.55H15.3999C15.5612 56.3242 15.6549 56.0571 15.6699 55.78V55.76ZM15.1399 57.34H15.3199V57.49L15.0299 57.97H14.7199V57.82C14.7826 57.8248 14.8455 57.8148 14.9036 57.7907C14.9616 57.7666 15.0132 57.7292 15.0541 57.6815C15.095 57.6338 15.1241 57.5771 15.139 57.516C15.1539 57.4549 15.1542 57.3912 15.1399 57.33V57.34ZM14.6199 58.77L14.5299 59.53H14.3699L14.2999 58.78H14.6199V58.77ZM9.37988 73.62C9.16988 74.62 8.94988 75.19 8.71988 75.21V75.06C8.70324 74.7832 8.75577 74.5067 8.87274 74.2553C8.98971 74.0039 9.16744 73.7855 9.38988 73.62H9.37988ZM8.37988 75.7V75.85C8.39118 75.8916 8.39233 75.9354 8.38326 75.9775C8.37418 76.0197 8.35514 76.0591 8.32772 76.0923C8.30031 76.1256 8.26531 76.1519 8.22567 76.1689C8.18603 76.1859 8.1429 76.1931 8.09988 76.19V76C8.09988 75.82 8.19322 75.7067 8.37988 75.66V75.7ZM8.14988 80H8.62988V80.17C8.45841 80.1993 8.29492 80.264 8.14988 80.36H7.83988C7.83988 80.2 7.91988 80.08 8.11988 80.02L8.14988 80ZM21.9399 75.74C20.246 76.474 18.6366 77.3893 17.1399 78.47C14.1932 79.49 12.7332 80.13 12.7599 80.39C10.9935 81.0446 9.26718 81.8026 7.58988 82.66C7.29305 82.6556 7.0016 82.5801 6.73988 82.44C6.72118 82.1781 6.77816 81.9163 6.90404 81.6858C7.02992 81.4553 7.21939 81.2659 7.44988 81.14C7.89714 81.102 8.3469 81.1741 8.75988 81.35C9.57202 80.986 10.4199 80.7078 11.2899 80.52V80.2L10.2899 80.28C11.1731 79.7446 12.1163 79.315 13.0999 79H13.5799V79.15C12.7499 79.22 12.2899 79.47 12.1899 79.9C12.1899 80.1 12.3199 80.18 12.5299 80.16C13.1499 79.77 13.4599 79.54 13.4499 79.47C14.6299 79.2433 17.8999 77.5333 23.2599 74.34V74.63C23.2599 74.77 22.8099 75.16 21.8899 75.83L21.9399 75.74ZM13.7199 78.44C14.4764 78.3794 15.186 78.0494 15.7199 77.51C15.9399 77.51 16.0599 77.58 16.0699 77.77C15.2887 77.9775 14.5483 78.3156 13.8799 78.77H13.7199V78.46V78.44ZM26.9999 68.27L22.8899 71.53C21.3164 72.6459 19.6656 73.6484 17.9499 74.53C13.0832 77.1967 10.0599 78.5867 8.87988 78.7H8.69988C8.84655 78.1533 11.0132 73.7167 15.1999 65.39C18.2018 64.9069 21.1291 64.0398 23.9099 62.81L24.9099 62.73C25.697 62.5894 26.5051 62.6193 27.2797 62.8177C28.0543 63.0161 28.7773 63.3784 29.3999 63.88L29.4599 64.49C28.7199 66.62 27.8999 67.87 27.0199 68.24L26.9999 68.27ZM18.9999 63.75L19.6599 63.69V63.84L18.9999 63.9V63.75ZM28.2899 62.18H28.7699C29.2199 62.39 29.4499 62.58 29.4699 62.75V62.9C29.2301 62.9032 28.9937 62.8429 28.7847 62.7252C28.5757 62.6075 28.4015 62.4367 28.2799 62.23L28.2899 62.18ZM29.5999 54.7C28.5062 55.7079 27.2979 56.5839 25.9999 57.31C25.3699 57.37 22.9999 58.31 18.9299 60.07C18.729 59.9946 18.5124 59.9706 18.2999 60V59.71C18.322 58.9051 18.5986 58.1279 19.0899 57.49C19.4099 55.81 19.7499 54.85 20.0899 54.62L23.4899 46.97C23.4499 46.4967 24.1766 46.1333 25.6699 45.88H26.1499V46.32C27.6099 46.1 28.5299 45.97 28.8799 45.94C31.5799 45.71 32.9899 46.26 33.0999 47.57H33.4099L33.3399 46.8H33.6799C34.0004 46.9176 34.2878 47.1108 34.5176 47.3632C34.7474 47.6157 34.9129 47.9199 34.9999 48.25C34.9686 48.8457 34.7236 49.4102 34.3099 49.84C34.0999 49.84 33.9799 49.71 33.9699 49.41H33.6299L33.5599 50.34C32.1932 52.3867 31.1932 53.44 30.5599 53.5C29.9999 54.27 29.6599 54.66 29.5599 54.66L29.5999 54.7ZM31.6899 60.06C31.4984 59.9069 31.2645 59.8162 31.0199 59.8V59.34H31.3299L32.0099 59.74C32.0212 59.7816 32.0223 59.8254 32.0133 59.8675C32.0042 59.9097 31.9851 59.9491 31.9577 59.9823C31.9303 60.0156 31.8953 60.0419 31.8557 60.0589C31.816 60.0759 31.7729 60.0831 31.7299 60.08L31.6899 60.06ZM33.8499 62.62C34.1499 62.74 34.3299 62.87 34.3599 62.99H34.1199L33.8999 63.17L33.8399 62.55L33.8499 62.62ZM33.9999 63.9V63.78L34.3899 63.69V63.81L33.9999 63.9ZM34.9399 65C35.3399 64.93 35.5399 64.91 36.2799 64.74V64.86L34.8599 65.19C34.8631 65.1267 34.8631 65.0633 34.8599 65H34.9399ZM36.3199 65.59C35.8403 65.6002 35.3636 65.6674 34.8999 65.79V65.67L36.0899 65.29L36.6599 65.16L36.7199 65.38C36.4599 65.44 36.6499 65.44 36.3499 65.59H36.3199ZM37.5799 65.29C37.5464 65.299 37.5114 65.3012 37.4771 65.2964C37.4427 65.2917 37.4097 65.2801 37.3799 65.2624C37.35 65.2447 37.3241 65.2212 37.3035 65.1933C37.2829 65.1654 37.268 65.1337 37.2599 65.1L37.6199 65.02C37.6521 65.0073 37.6868 65.0025 37.7212 65.0057C37.7557 65.009 37.7889 65.0204 37.8181 65.0389C37.8473 65.0574 37.8718 65.0825 37.8895 65.1123C37.9071 65.142 37.9176 65.1755 37.9199 65.21L37.5799 65.29ZM40.9999 61.57V61.45L41.5899 61.31L41.6499 61.53H41.0299L40.9999 61.57ZM44.6399 83.91C44.6649 83.788 44.6649 83.6621 44.6399 83.54H44.7699C44.8 83.5274 44.8326 83.5219 44.8651 83.5241C44.8977 83.5262 44.9293 83.536 44.9574 83.5525C44.9856 83.569 45.0095 83.5918 45.0273 83.6191C45.045 83.6465 45.0562 83.6776 45.0599 83.71V83.83L44.5799 83.94L44.6399 83.91ZM47.1899 62.53H46.9299C46.5859 62.6733 46.2315 62.7903 45.8699 62.88L45.6299 62.94C45.5984 62.9507 45.565 62.9547 45.5319 62.9518C45.4988 62.9488 45.4667 62.9391 45.4375 62.9231C45.4084 62.9071 45.3829 62.8853 45.3626 62.8589C45.3424 62.8326 45.3278 62.8023 45.3199 62.77L46.9999 62.34L47.5599 62.08L47.7499 62.29C47.5393 62.3194 47.3397 62.402 47.1699 62.53H47.1899ZM48.4999 62.11V61.99C48.6238 61.9506 48.7344 61.878 48.8199 61.78L49.9999 61.51V61.63C49.4771 61.7459 48.9652 61.9065 48.4699 62.11H48.4999ZM48.6899 59.66C48.5636 59.7064 48.4479 59.7778 48.3499 59.87C48.3499 59.79 48.1599 59.79 47.8499 59.87C47.7899 59.64 48.6899 59.31 50.5399 58.87L50.7999 58.81L50.8599 59.03C49.5599 59.41 48.8599 59.63 48.6899 59.65V59.66ZM51.9499 56.14C51.8199 57.62 51.2999 58.46 50.3799 58.67V58.55L49.5599 58.87L49.1999 58.95C49.0365 58.9967 48.8633 58.9967 48.6999 58.95L48.6299 58.62C49.7147 56.9119 50.9036 55.2721 52.1899 53.71H52.4699C52.5058 54.5338 52.3411 55.354 51.9899 56.1L51.9499 56.14ZM57.7199 51.2H57.5999V50.97H58.0799V51.09C57.9541 51.1249 57.8332 51.1752 57.7199 51.24V51.2ZM55.3399 75.06C55.1091 74.9387 54.8505 74.8801 54.5899 74.89V74.54C54.5899 74.42 54.6632 74.3367 54.8099 74.29C54.9699 74.29 55.0599 74.38 55.0799 74.63C55.2702 74.3464 55.4953 74.0877 55.7499 73.86L55.9999 74C55.9099 74.71 55.6899 75.08 55.3599 75.11L55.3399 75.06ZM80.8099 48.42C80.6899 48.42 80.4599 48.06 80.0899 47.3V47.07C80.3199 47.07 80.5699 47.41 80.8099 48.16V48.42ZM80.4699 45.76L80.3599 46L76.9099 44.56C79.2099 44.63 80.3999 45.04 80.4699 45.76ZM65.8599 58.3H65.3799V58.07H65.8599V58.3ZM65.4599 50.76H65.5899V51.11C65.4699 51.11 65.3199 51.2767 65.1399 51.61V51.38C65.3085 51.213 65.4175 50.9951 65.4499 50.76H65.4599ZM64.4599 53.18V53.64H64.3299V53.18H64.4599ZM63.9099 54.05H64.1499C64.1499 54.4433 64.0465 54.6467 63.8399 54.66H63.6999C63.8181 54.4774 63.887 54.2672 63.8999 54.05H63.9099ZM63.5199 55.24H63.6299V55.36L63.4199 55.73H63.1799V55.61C63.4299 55.61 63.5399 55.46 63.5199 55.23V55.24ZM63.1299 56.32L63.0499 56.92H62.9399V56.33H63.1799L63.1299 56.32ZM59.1299 67.62C58.9699 68.4 58.8032 68.8 58.6299 68.82V68.72C58.6216 68.5094 58.6636 68.2998 58.7522 68.1085C58.8409 67.9173 58.9738 67.7498 59.1399 67.62H59.1299ZM58.3999 69.2V69.3C58.4099 69.3329 58.4116 69.3678 58.4049 69.4015C58.3983 69.4353 58.3834 69.4669 58.3617 69.4935C58.34 69.5202 58.312 69.5411 58.2803 69.5544C58.2486 69.5678 58.2141 69.5731 58.1799 69.57V69.45C58.1799 69.33 58.2532 69.2467 58.3999 69.2ZM58.1899 72.48H58.5599V72.6C58.4324 72.6244 58.3104 72.6719 58.1999 72.74H57.9599C57.9599 72.6067 58.0332 72.5233 58.1799 72.49L58.1899 72.48ZM68.6499 69.25C67.3697 69.8176 66.1474 70.5074 64.9999 71.31C62.7599 72.09 61.6599 72.58 61.6699 72.77C60.3364 73.2643 59.0341 73.8387 57.7699 74.49C57.5455 74.4804 57.3264 74.4188 57.1299 74.31C57.1078 74.1082 57.1476 73.9045 57.244 73.7258C57.3405 73.5472 57.489 73.4022 57.6699 73.31C58.0105 73.2778 58.3537 73.3293 58.6699 73.46C59.2924 73.1935 59.9386 72.9859 60.5999 72.84V72.61L59.8499 72.68C60.5212 72.2633 61.2395 71.9276 61.9899 71.68H62.3599V71.78C61.7299 71.84 61.3599 72.02 61.2999 72.36C61.2989 72.3923 61.3055 72.4245 61.319 72.4538C61.3325 72.4832 61.3527 72.5091 61.3778 72.5294C61.403 72.5498 61.4325 72.564 61.4641 72.571C61.4957 72.5781 61.5285 72.5777 61.5599 72.57C62.0299 72.26 62.2499 72.09 62.2499 72.03C63.1432 71.87 65.6232 70.57 69.6899 68.13V68.36C69.6899 68.45 69.3499 68.75 68.6899 69.26L68.6499 69.25ZM62.4099 71.25C63 71.2279 63.5633 70.9977 63.9999 70.6C64.1599 70.6 64.2499 70.66 64.2599 70.81C63.6735 70.9604 63.1137 71.1999 62.5999 71.52H62.4699V71.3L62.4099 71.25ZM72.4899 63.51L69.3899 66.01C68.1911 66.8678 66.9311 67.6365 65.6199 68.31C61.9332 70.31 59.6365 71.3633 58.7299 71.47H58.5999C58.7132 71.05 60.3632 67.6833 63.5499 61.37C65.8291 60.9863 68.0503 60.3142 70.1599 59.37L70.9099 59.3C71.5073 59.194 72.1205 59.2186 72.7075 59.3723C73.2944 59.5259 73.8411 59.8049 74.3099 60.19V60.65C73.7399 62.25 73.1299 63.19 72.4599 63.48L72.4899 63.51ZM66.3999 60.13H66.8799V60.25H66.3999V60.13ZM73.4499 58.93H73.8199C74.1599 59.1 74.3399 59.25 74.3499 59.37V59.47C74.166 59.477 73.9837 59.4331 73.8231 59.3431C73.6626 59.2531 73.5299 59.1205 73.4399 58.96L73.4499 58.93ZM74.4499 53.26C73.6443 54.0282 72.7516 54.6994 71.7899 55.26C69.9467 55.8074 68.1509 56.503 66.4199 57.34C66.263 57.2837 66.0963 57.2599 65.9299 57.27V57.04C65.9448 56.4288 66.1511 55.8377 66.5199 55.35C66.7599 54.06 67.0299 53.35 67.3099 53.18L69.9099 47.37C69.9099 47.03 70.4299 46.75 71.5499 46.53H71.9199V46.88C73.0199 46.7 73.7099 46.5967 73.9899 46.57C75.9899 46.39 77.1099 46.8 77.1999 47.81H77.4399V47.25H77.6799C77.9353 47.3419 78.1621 47.4993 78.3376 47.7064C78.5131 47.9134 78.6311 48.163 78.6799 48.43C78.6644 48.8815 78.491 49.3132 78.1899 49.65C78.0299 49.65 77.9399 49.56 77.9199 49.31H77.6799L77.6099 50.01C76.6099 51.58 75.8199 52.4 75.3499 52.43C74.9299 53 74.6699 53.29 74.5499 53.3L74.4499 53.26ZM75.5399 57.14V56.79H75.7799L76.2999 57.11C76.3042 57.1413 76.3017 57.1732 76.2926 57.2034C76.2835 57.2337 76.268 57.2616 76.2471 57.2854C76.2262 57.3091 76.2005 57.328 76.1716 57.3409C76.1428 57.3538 76.1115 57.3603 76.0799 57.36C75.9318 57.2472 75.7552 57.1779 75.5699 57.16L75.5399 57.14ZM32.1499 79.76L31.9099 79.82L31.6999 80C31.7036 80.0324 31.7147 80.0635 31.7325 80.0909C31.7503 80.1182 31.7742 80.1411 31.8024 80.1576C31.8305 80.1741 31.8621 80.1838 31.8946 80.1859C31.9272 80.1881 31.9598 80.1826 31.9899 80.17C32.1499 80.17 32.2099 80.04 32.1799 79.89V79.77L32.1499 79.76ZM31.2299 77.92V78.04C31.3899 78.04 31.4499 77.91 31.4199 77.76V77.64C31.3877 77.6431 31.3567 77.6533 31.3289 77.6698C31.3011 77.6863 31.2773 77.7087 31.2592 77.7354C31.2411 77.7622 31.229 77.7926 31.224 77.8245C31.2189 77.8564 31.2209 77.889 31.2299 77.92ZM37.8299 65.53L38.0099 65.42H37.9199C37.8923 65.4271 37.8686 65.4446 37.8537 65.4689C37.8387 65.4931 37.8338 65.5222 37.8399 65.55L37.8299 65.53ZM37.8299 62.32L38.1099 62.25L37.9999 62L37.7199 62.07L37.7799 62.31L37.8299 62.32ZM103.68 71.73L103.05 71.66L102.94 71.9V72L106.71 71.68V71.45L103.71 71.71L103.68 71.73ZM122.96 69.37V69.6L123.37 69.67V69.44L122.96 69.37ZM122.38 69.37C121.148 69.7131 119.878 69.9045 118.6 69.94V70.17H119L119.31 70.05C122.11 69.74 122.44 69.85 122.41 69.54V69.43L122.38 69.37ZM105.38 65.25L105.13 65.17C104.989 65.4896 104.888 65.8255 104.83 66.17V66.27C105.03 66.27 105.2 65.93 105.37 65.27L105.38 65.25ZM101.97 63.41V63.29H101.84L101.61 63.44L101.74 63.66C101.92 63.66 102 63.56 101.98 63.4L101.97 63.41ZM109.38 71.07V70.84H109.31V71.07H109.38ZM124.75 67.6H124.93C125.03 67.6 125.08 67.51 125.07 67.36L124.97 67.14C124.46 67.1372 123.957 67.2645 123.51 67.51V67.39L122.74 67.46C122.74 67.23 122.66 67.11 122.55 67.12H122.15C121.68 67.12 121.46 67.12 121.23 67.32C121.23 67.24 121.23 67.2 121.15 67.2H120.7L120.44 67.35C120.44 67.27 120.44 67.23 120.36 67.23L120.2 67.37V67.25H119.43V67.48L119.75 67.56H120.05C120.152 67.6201 120.272 67.6447 120.39 67.63L120.65 67.5V67.6C119.841 67.8104 119.019 67.9674 118.19 68.07C118.119 68.0108 118.032 67.9757 117.94 67.97C117.914 67.9687 117.888 67.9623 117.864 67.951C117.84 67.9398 117.819 67.9239 117.801 67.9044C117.784 67.8849 117.77 67.8621 117.761 67.8373C117.752 67.8126 117.749 67.7863 117.75 67.76L118.27 67.69C118.385 67.7266 118.502 67.7566 118.62 67.78C119.04 67.57 119.06 67.49 119.28 67.47V67.24C118.402 67.4013 117.512 67.485 116.62 67.49H116.54V67.26C118.85 66.98 118.08 67.14 118.87 66.92C118.87 67 118.87 67.04 118.95 67.04C119.035 66.9519 119.148 66.8954 119.27 66.88H119.43C120.296 66.9189 121.163 66.8245 122 66.6V66.7L122.26 66.57H122.5C122.5 66.34 122.84 66.3 122.96 66.29V66.04C120.15 66.61 119.41 66.45 118.63 66.67V66.57C118.302 66.6458 117.965 66.6728 117.63 66.65C117.54 66.6771 117.461 66.7291 117.4 66.8C117.4 66.72 117.4 66.68 117.31 66.68L114.92 67.07C114.92 67 114.92 66.97 114.83 66.98C113.995 67.2244 113.137 67.3786 112.27 67.44C112.158 67.4603 112.053 67.5047 111.96 67.57C111.96 67.5 111.96 67.47 111.83 67.48L110.83 67.56L110.15 67.73C110.15 67.66 110.15 67.63 110.02 67.64C109.693 67.7346 109.358 67.7982 109.02 67.83C108.85 67.83 109.1 67.83 109.02 67.73L108.81 67.85H107.65C105.85 68.07 106.05 68.1 105.85 68.11H105.18C105.183 68.1243 105.183 68.1391 105.179 68.1533C105.176 68.1675 105.169 68.1806 105.159 68.1914C105.149 68.2023 105.137 68.2105 105.123 68.2155C105.109 68.2205 105.094 68.222 105.08 68.22C104.32 68.12 103.92 68 103.92 67.86C104.02 67.1333 104.197 66.76 104.45 66.74H104.58L104.47 66.98H104.6C104.84 66.85 104.95 66.73 104.94 66.62V66.37H104.7V66.14C104.677 65.9799 104.702 65.8167 104.77 65.67L105.32 64.78V65.01H105.58V64.78L105.43 64.57C105.559 64.4385 105.721 64.345 105.9 64.3V64.18H105.55V63.83C106 63.0236 106.337 62.1587 106.55 61.26L106.8 61.36C106.96 61.36 107.03 61.26 107.02 61.09H106.78V60.99C106.763 60.8214 106.794 60.6514 106.87 60.5C107.041 60.3473 107.176 60.1589 107.266 59.948C107.356 59.7372 107.398 59.5091 107.39 59.28C107.46 59.28 107.5 59.28 107.51 59.39C107.84 59.2 108.09 58.71 108.27 57.89C109.242 55.8685 110.067 53.7798 110.74 51.64C112.79 46.12 112.74 45.54 112.99 44.23H112.75C112.768 44.3954 112.737 44.5625 112.66 44.71C112.537 44.654 112.405 44.6234 112.27 44.62V44.52C112.28 43.8985 112.494 43.2975 112.88 42.81H112.99L113.2 43.61H113.44C113.48 43.2727 113.543 42.9385 113.63 42.61C113.63 42.49 113.53 42.41 113.34 42.4L113.11 42.55V41.25H112.99C112.828 41.1212 112.716 40.9414 112.67 40.74L111.34 40.87C111.315 40.7254 111.264 40.5865 111.19 40.46C111.19 40.34 111.48 40.22 112.09 40.1L112.36 40.2L112.61 40.05C112.61 40.13 112.67 40.17 112.76 40.16L113.01 40.01C113.01 40.09 113.07 40.13 113.16 40.12H113.28V39.85H111.82L111.57 40.02V39.87C105.317 40.3833 101.767 40.68 100.92 40.76H99.5999C99.5999 40.86 99.5199 40.92 99.3299 40.94L99.0599 40.82L97.9999 41C97.6406 41.0322 97.2792 41.0322 96.9199 41C96.7738 41.1164 96.5961 41.1861 96.4099 41.2L99.0599 41C98.8676 41.1305 98.6421 41.2033 98.4099 41.21C98.2282 41.2347 98.0433 41.2033 97.8799 41.12C97.2246 41.3217 96.5564 41.4788 95.8799 41.59L95.6099 41.49L91.2499 42.16C91.0654 42.0757 90.8611 42.0445 90.6599 42.07C90.267 42.1215 89.8791 42.2051 89.4999 42.32L87.3899 43.2L87.5499 43.46C87.7031 43.4325 87.8493 43.3747 87.9799 43.29L88.7299 43.36L88.6399 44.06C88.3438 44.1653 88.0789 44.3431 87.8692 44.5772C87.6596 44.8113 87.512 45.0942 87.4399 45.4C86.4399 45.86 85.8899 46.18 85.8899 46.4V46.52H86.0499L86.3299 46.37L86.6599 46.76V47.3C86.6599 47.4667 84.9232 51.1333 81.4499 58.3C78.4499 65.2 76.8499 68.97 76.6999 69.65C75.6999 69.94 75.0699 70.36 74.8899 70.92C74.8899 71.1 75.2199 71.22 75.8099 71.26V71.53L75.5399 71.98V72.52C75.5399 72.8 76.2932 73.0133 77.7999 73.16C77.7999 73.07 77.7999 73.01 77.9399 73C77.9297 73.6757 77.8357 74.3475 77.6599 75H77.9999C78.4518 74.5188 78.7571 73.9186 78.8799 73.27H78.9999C79.1499 73.27 79.3099 73.43 79.4899 73.79C79.3032 73.8633 78.6366 75.3467 77.4899 78.24L77.6499 78.5H77.8099C79.1765 75.0333 80.0366 73.1167 80.3899 72.75C82.1899 72.59 85.2999 72.2567 89.7199 71.75L89.9999 71.58C89.9989 71.601 90.0029 71.622 90.0118 71.6411C90.0207 71.6602 90.034 71.6768 90.0508 71.6896C90.0675 71.7024 90.0871 71.711 90.1078 71.7145C90.1286 71.718 90.1499 71.7165 90.1699 71.71H90.4599L90.7399 71.54C90.7389 71.561 90.7429 71.582 90.7518 71.6011C90.7607 71.6202 90.774 71.6368 90.7908 71.6496C90.8075 71.6624 90.8271 71.671 90.8478 71.6745C90.8686 71.6781 90.8899 71.6765 90.9099 71.67L94.2599 71.38C95.1499 71.31 95.5599 71.04 95.5299 70.58C95.5299 70.46 96.0399 70.32 97.0999 70.17C97.2568 70.1682 97.4128 70.1954 97.5599 70.25C97.5599 70.17 98.0799 70.08 99.1399 69.99C99.1399 69.43 99.3399 69.13 99.6599 69.1V68.83C99.3191 68.8694 98.9837 68.9465 98.6599 69.06C98.2121 69.0544 97.7662 69.0008 97.3299 68.9C97.1986 68.9833 97.0527 69.041 96.8999 69.07L94.5099 69L94.2299 69.15C94.2299 69.0633 94.1732 69.0267 94.0599 69.04H93.9299L93.6299 69.19C93.6299 69.11 93.3799 69.04 92.8899 68.98L92.5899 69.16H92.0099V69.01C95.0099 68.6833 96.4899 68.2767 96.4499 67.79C96.4895 67.7805 96.5308 67.7805 96.5704 67.7899C96.6101 67.7993 96.647 67.8179 96.6781 67.8441C96.7093 67.8704 96.7338 67.9036 96.7497 67.9411C96.7657 67.9786 96.7726 68.0193 96.7699 68.06L97.6499 67.84V67.57L90.4699 67.77C90.4699 67.86 90.4699 67.92 90.3299 67.93L89.4499 67.86C89.248 67.8719 89.0536 67.9413 88.8899 68.06L88.5399 68C87.8638 68.042 87.1937 68.1526 86.5399 68.33C85.8743 68.2776 85.2055 68.2776 84.5399 68.33L82.9299 68.47L82.1799 68.39C82.1799 67.91 83.0699 65.58 84.9699 61.39C85.2513 60.3938 85.7812 59.4853 86.5099 58.75C86.6695 58.7522 86.8266 58.7898 86.9699 58.86L87.9999 58.47L88.5899 58.56C89.7724 58.4305 90.9325 58.1447 92.0399 57.71C92.2919 57.6741 92.5489 57.6981 92.7899 57.78L93.6699 57.57L96.2799 57.35C97.5095 57.2333 98.7231 56.9852 99.8999 56.61V56.34C99.4199 56.34 99.1599 56.34 99.1499 56.11C99.1499 55.75 98.7699 55.6 98.0899 55.65V55.38L98.8099 55.17L100.69 55.01V54.74H99.5299V54.45L100.26 54.38C100.46 54.38 100.54 54.27 100.52 54.08C99.5199 54.08 99.0499 54.08 99.0399 53.93C92.2199 54.2633 88.7999 54.3267 88.7799 54.12C88.6252 54.1536 88.4789 54.2182 88.3499 54.31L88.0599 54C89.8665 50.16 90.9266 48.2267 91.2399 48.2C91.2216 48.4535 91.1464 48.6996 91.0199 48.92V49H91.3099C92.0299 47.29 92.6299 46.4 93.1399 46.36C95.2799 46.17 92.8399 46.03 97.4299 45.36C97.5557 45.4292 97.6963 45.4669 97.8399 45.47C99.6399 45.1033 102.147 44.7233 105.36 44.33V44.06L103.65 44.22V43.95C103.836 43.9361 104.014 43.8664 104.16 43.75V43.9C104.302 43.866 104.435 43.8011 104.55 43.71C104.78 43.6718 105.015 43.6995 105.23 43.79C105.702 43.6579 106.183 43.561 106.67 43.5L107.74 43.4C108 43.23 108.12 43.08 108.11 42.94V42.82C107.795 42.844 107.479 42.8238 107.17 42.76C107.166 42.7245 107.169 42.6885 107.178 42.6542C107.188 42.6198 107.205 42.5878 107.227 42.5599C107.25 42.532 107.277 42.5088 107.309 42.4916C107.34 42.4745 107.374 42.4637 107.41 42.46L109.41 42.27L110.32 42.04C110.32 42.14 110.38 42.18 110.45 42.18C110.592 42.146 110.725 42.0811 110.84 41.99H110.99C110.828 42.3424 110.695 42.7068 110.59 43.08H110.33C110.316 42.9108 110.265 42.7468 110.18 42.6H110C107.58 49.35 106.5 52.49 104.26 57.67C103.85 58.99 103.51 59.73 103.21 59.89C103.209 59.9223 103.216 59.9545 103.229 59.9839C103.243 60.0132 103.263 60.0391 103.288 60.0594C103.313 60.0798 103.343 60.094 103.374 60.101C103.406 60.1081 103.438 60.1077 103.47 60.1C103.521 60.7756 103.361 61.4503 103.01 62.03C102.01 65.03 101.29 66.64 100.93 66.94L101.16 68.35C101.164 68.3813 101.162 68.4132 101.153 68.4434C101.143 68.4737 101.128 68.5016 101.107 68.5254C101.086 68.5491 101.06 68.568 101.032 68.5809C101.003 68.5938 100.971 68.6003 100.94 68.6H100.7C100.7 68.21 100.52 68.02 100.27 68.05H100.14C99.8044 68.5785 99.561 69.1601 99.4199 69.77H99.6599C99.7988 69.7012 99.9151 69.5939 99.9948 69.461C100.075 69.328 100.115 69.175 100.11 69.02H100.59L100.87 69.12C100.681 69.3644 100.573 69.6614 100.56 69.97L100.69 70.19L100.37 70.94V71.06C100.693 71.0469 101.012 71.1381 101.28 71.32C101.542 71.2738 101.79 71.1639 102 71H105.12L106.02 70.69C106.764 70.7064 107.508 70.683 108.25 70.62H108.64L108.85 70.48V70.6C109.463 70.5303 110.084 70.5539 110.69 70.67V70.79H110.14V71.02C110.3 71.0095 110.454 70.9502 110.58 70.85C110.72 70.85 110.8 70.92 110.81 71.08C110.554 71.1071 110.302 71.1641 110.06 71.25L109.82 71.17C109.44 71.27 109.52 71.3 109.26 71.32L108.88 71.25C108.883 71.2634 108.883 71.2773 108.88 71.2906C108.877 71.304 108.87 71.3164 108.862 71.327C108.853 71.3376 108.842 71.3461 108.83 71.3518C108.817 71.3576 108.804 71.3604 108.79 71.36C108.788 71.3898 108.793 71.4197 108.804 71.4474C108.815 71.4751 108.833 71.4999 108.855 71.52C108.877 71.5402 108.903 71.5551 108.932 71.5638C108.96 71.5724 108.99 71.5745 109.02 71.57H109.41L111.41 71.39L112.18 71.22C112.18 71.29 112.18 71.32 112.28 71.31L112.65 71.17L113.35 71.11C113.89 71.11 113.88 71.03 115.06 70.84C115.06 70.77 115.06 70.74 115.13 70.73V70.83C115.919 70.7343 116.701 70.5839 117.47 70.38V70.44C117.95 70.33 117.68 70.36 117.81 70.26C117.81 70.34 117.81 70.38 117.89 70.38H118.23V70.13H117.39C117.139 70.1769 116.885 70.197 116.63 70.19L114.92 70.28V70.16L115.92 70.03H116.26L116.46 69.89V70C117.8 69.89 118.28 70.22 124.46 68.9C124.8 68.9 124.77 68.59 124.98 68.01C124.865 68.0199 124.751 67.9955 124.65 67.94C124.069 68.081 123.477 68.168 122.88 68.2C122.8 68.2 122.73 68.13 122.7 67.99V67.89H123.7C124.054 67.8523 124.396 67.7362 124.7 67.55C124.7 67.63 124.5 67.68 124.62 67.67L124.75 67.6ZM78.8699 68.34H78.4299C78.5764 67.646 78.8117 66.9739 79.1299 66.34H79.4199C79.3286 67.0286 79.1435 67.7015 78.8699 68.34ZM79.3999 66.22V66.1C79.3999 65.95 79.4799 65.85 79.6899 65.8V66C79.6899 66.18 79.6099 66.28 79.3999 66.3V66.22ZM85.2199 70.72V70.84L84.4899 70.91V70.79L85.2199 70.72ZM84.3399 70.65C84.3399 70.8 84.1299 70.97 83.6399 71.13L82.7499 71.06H82.4599V70.79L84.3699 70.61L84.3399 70.65ZM90.2299 43.54H89.7899V43.39C89.7899 43.24 89.8599 43.14 90.0499 43.09H90.2099L90.5099 43.21C90.5159 43.2482 90.5133 43.2873 90.5023 43.3243C90.4913 43.3614 90.4722 43.3955 90.4463 43.4243C90.4204 43.453 90.3885 43.4756 90.3528 43.4904C90.3171 43.5053 90.2785 43.512 90.2399 43.51L90.2299 43.54ZM96.8899 42.24H96.9999V42.51H96.5999C96.5957 42.4745 96.5986 42.4385 96.6085 42.4042C96.6183 42.3698 96.6349 42.3378 96.6572 42.3099C96.6795 42.282 96.7072 42.2588 96.7385 42.2416C96.7699 42.2245 96.8043 42.2137 96.8399 42.21L96.8899 42.24ZM95.2099 42.83L94.5499 42.76V42.64C95.124 42.6017 95.6915 42.4943 96.2399 42.32C96.2399 42.42 96.3399 42.46 96.5099 42.44V42.71H96.2499C96.0682 42.7347 95.8833 42.7033 95.7199 42.62C95.5677 42.7236 95.3927 42.7888 95.2099 42.81V42.83ZM95.9999 45.29V45.17L97.0699 45.07V45.19L95.9999 45.29ZM97.1499 44.36V44.2H97.6699V44.35H97.1499V44.36ZM97.2699 42.53H97.1299L97.2499 42.24L98.4399 42.13V42.28C98.0405 42.3269 97.6458 42.4072 97.2599 42.52L97.2699 42.53ZM97.8799 45.1V44.83H98.3999C98.5799 44.83 98.6732 44.9133 98.6799 45.08L97.8999 45.15L97.8799 45.1ZM101.04 40.8L100.37 40.99H100.25C99.8344 41.0314 99.416 41.0348 98.9999 41C99.8699 40.94 100.7 40.88 101 40.83L101.04 40.8ZM100.32 43.8V43.92L99.3999 44V43.88L100.32 43.8ZM101.83 44.52C101.83 44.41 101.64 44.33 101.28 44.3L100.36 44.56H99.6499C99.4899 44.45 99.4099 44.37 99.3999 44.32H100.22L102.06 44.02H103V44.17C102.599 44.2047 102.203 44.2853 101.82 44.41L101.83 44.52ZM111.32 42H111.53C111.849 41.6822 112.226 41.4277 112.64 41.25C112.435 42.4661 111.891 43.5995 111.07 44.52L110.55 44.2C110.857 43.4787 111.115 42.7369 111.32 41.98V42ZM109.72 44.75H109.85C109.67 45.09 109.51 45.26 109.38 45.27V44.92C109.511 44.8979 109.635 44.8429 109.74 44.76L109.72 44.75ZM108.72 47.22C108.8 46.5921 109.049 45.9977 109.44 45.5V45.62C109.31 46.55 109.1 47.05 108.83 47.08V47.67C108.647 47.88 108.535 48.1425 108.51 48.42H108.38L108.31 47.61C108.46 47.61 108.58 47.46 108.66 47.22H108.72ZM108.32 48.56C108.281 48.9051 108.19 49.2424 108.05 49.56H107.92V49.21C108.1 48.8 108.25 48.59 108.35 48.59L108.32 48.56ZM100.8 70.38V70.28H101.04V70.63C100.91 70.63 100.82 70.56 100.78 70.4L100.8 70.38ZM111.54 70.66C111.54 70.58 111.54 70.54 111.41 70.55L110.8 70.61V70.49H110.86L112.29 70.37V70.49C112.027 70.4701 111.765 70.5331 111.54 70.67V70.66ZM110.82 70.36C110.88 70.36 110.82 70.42 110.82 70.43C110.82 70.44 110.75 70.43 110.82 70.36ZM110.89 68.68L110.09 68.75V68.63L110.82 68.56L111.45 68.4C111.45 68.47 111.45 68.5 111.58 68.49C112.33 68.36 112.26 68.32 112.58 68.29C112.7 68.29 112.78 68.36 112.79 68.5L110.86 68.67L110.89 68.68ZM113.69 68.44C113.43 68.3873 113.165 68.3671 112.9 68.38V68.28L113.62 68.21V68.31C113.55 68.31 113.82 68.31 113.69 68.43V68.44ZM113.75 68.31V68.21H114.14V68.31H113.75ZM114.62 68.24V68.14C114.724 68.1128 114.82 68.0614 114.9 67.99C114.938 67.9844 114.977 67.9868 115.015 67.9971C115.052 68.0074 115.087 68.0253 115.117 68.0498C115.147 68.0742 115.172 68.1046 115.189 68.1391C115.207 68.1735 115.218 68.2113 115.22 68.25L114.62 68.24ZM115.73 68.1V68H116.21V68.12H115.73V68.1ZM116.39 68.04C116.39 67.9 116.39 67.82 116.56 67.8L116.72 68.01C116.717 67.9982 116.716 67.9859 116.718 67.9738C116.72 67.9618 116.725 67.9503 116.731 67.94C116.738 67.9297 116.746 67.9209 116.756 67.914C116.767 67.9071 116.778 67.9024 116.79 67.9L116.91 68.12L116.39 68.05V68.04ZM125.7 66.88C125.77 66.88 125.81 66.79 125.63 66.76C125.45 66.73 125.72 66.88 125.54 66.89V67L125.64 66.93L125.54 67.01L125.34 67.26L125.73 67.12V66.89L125.7 66.88ZM126.38 67.41H126.31V67.64H126.86C126.86 67.49 126.49 67.44 126.37 67.44L126.38 67.41Z" fill="#F9DC3E"/>
</svg>
