<svg xmlns="http://www.w3.org/2000/svg" viewBox="0 0 128 128"><path d="M125.58 58.29 69.69 2.41c-3.22-3.22-8.44-3.22-11.67 0l-11.58 11.6 14.72 14.72c3.44-1.15 7.35-.37 10.07 2.35 2.75 2.75 3.51 6.71 2.34 10.13L87.75 55.4c3.44-1.19 7.4-.42 10.13 2.32a9.796 9.796 0 0 1 0 13.89c-3.83 3.83-10.03 3.83-13.87 0a9.86 9.86 0 0 1-2.15-10.65L68.59 47.75v34.8c.94.46 1.82 1.08 2.6 1.86 3.8 3.85 3.8 10.04 0 13.87-3.83 3.85-10.07 3.85-13.91 0-3.83-3.83-3.83-10.02 0-13.86.97-.96 2.06-1.69 3.23-2.17V47.11c-1.16-.49-2.26-1.18-3.2-2.14a9.757 9.757 0 0 1-2.11-10.71L40.74 19.73 2.4 58.03c-3.2 3.23-3.2 8.45 0 11.67l55.89 55.88a8.245 8.245 0 0 0 11.66 0l55.63-55.63a8.227 8.227 0 0 0 0-11.66" style="fill:#f05032"/></svg>