<svg width="32" height="32" viewBox="0 0 32 32" fill="none" xmlns="http://www.w3.org/2000/svg">
<path fill-rule="evenodd" clip-rule="evenodd" d="M15.9994 0.398466C7.16465 0.398466 0 7.56192 0 16.3978C0 23.4674 4.5839 29.4627 10.9413 31.5793C11.7415 31.7275 12.0356 31.2315 12.0356 30.8086C12.0356 30.4271 12.0197 29.1669 12.0132 27.831C7.56155 28.799 6.62315 25.9424 6.62315 25.9424C5.89555 24.0928 4.8467 23.6009 4.8467 23.6009C3.3951 22.6069 4.95715 22.6288 4.95715 22.6288C6.56345 22.741 7.40915 24.2765 7.40915 24.2765C8.83715 26.7226 11.1533 26.0145 12.0657 25.6064C12.2098 24.5723 12.6232 23.866 13.0815 23.4662C9.52745 23.0629 5.7916 21.6904 5.7916 15.5592C5.7916 13.8129 6.4176 12.385 7.43985 11.2652C7.27335 10.8613 6.7253 9.23492 7.594 7.03152C7.594 7.03152 8.9375 6.60102 11.9955 8.67152C13.271 8.31777 14.6394 8.13942 15.9983 8.13352C17.3583 8.13942 18.729 8.31717 20.0064 8.67152C23.0602 6.60222 24.4025 7.03152 24.4025 7.03152C25.2724 9.23552 24.7267 10.8631 24.5602 11.2653C25.586 12.385 26.2067 13.8129 26.2067 15.5592C26.2067 21.7046 22.4625 23.0557 18.9008 23.452C19.4748 23.9481 19.9874 24.9219 19.9874 26.4137C19.9874 28.5533 19.9692 30.2777 19.9692 30.8039C19.9692 31.2297 20.2574 31.7275 21.0688 31.5716C27.4226 29.4539 32.0006 23.4579 32.0006 16.3925C32.0006 7.55772 24.8372 0.393066 16.0006 0.393066L15.9995 0.398416L15.9994 0.398466Z" fill="white"/>
</svg>
